<svg xmlns="http://www.w3.org/2000/svg" viewBox="0 0 26 28" fill="none"><path fill="#181D1F" fill-opacity=".75" d="M7.938 27.5h3.375c.309 0 .562-.253.562-.562V1.063A.564.564 0 0 0 11.313.5H7.937a.564.564 0 0 0-.562.563v25.875c0 .309.253.562.563.562m-6.75 0h3.375c.309 0 .562-.253.562-.562V16.813a.564.564 0 0 0-.562-.563H1.188a.564.564 0 0 0-.563.563v10.125c0 .309.253.562.563.562m13.506 0h3.361c.317 0 .57-.253.57-.57V12.32a.567.567 0 0 0-.57-.57h-3.36a.567.567 0 0 0-.57.57v14.61c0 .317.253.57.57.57m6.181-21.93v21.36c0 .317.253.57.57.57h3.36c.317 0 .57-.253.57-.57V5.57a.567.567 0 0 0-.57-.57h-3.36a.567.567 0 0 0-.57.57"/></svg>