<svg viewBox="0 0 40 40" fill="none" xmlns="http://www.w3.org/2000/svg">
<path d="M31.6667 22.6433V16.6666C31.6667 11.3049 28.025 6.78825 23.0917 5.42992C22.6033 4.19992 21.41 3.33325 20 3.33325C18.59 3.33325 17.3967 4.19992 16.9083 5.42992C11.975 6.78992 8.33333 11.3049 8.33333 16.6666V22.6433L5.48834 25.4883C5.33326 25.6428 5.21028 25.8264 5.12648 26.0286C5.04267 26.2309 4.99968 26.4477 5 26.6666V29.9999C5 30.4419 5.1756 30.8659 5.48816 31.1784C5.80072 31.491 6.22464 31.6666 6.66667 31.6666H33.3333C33.7754 31.6666 34.1993 31.491 34.5118 31.1784C34.8244 30.8659 35 30.4419 35 29.9999V26.6666C35.0003 26.4477 34.9573 26.2309 34.8735 26.0286C34.7897 25.8264 34.6667 25.6428 34.5117 25.4883L31.6667 22.6433ZM31.6667 28.3333H8.33333V27.3566L11.1783 24.5116C11.3334 24.3571 11.4564 24.1734 11.5402 23.9712C11.624 23.769 11.667 23.5522 11.6667 23.3333V16.6666C11.6667 12.0716 15.405 8.33325 20 8.33325C24.595 8.33325 28.3333 12.0716 28.3333 16.6666V23.3333C28.3333 23.7766 28.5083 24.1999 28.8217 24.5116L31.6667 27.3566V28.3333ZM20 36.6666C21.0322 36.6679 22.0391 36.3476 22.8808 35.7502C23.7225 35.1528 24.3572 34.308 24.6967 33.3333H15.3033C15.6428 34.308 16.2775 35.1528 17.1192 35.7502C17.9609 36.3476 18.9678 36.6679 20 36.6666Z" fill="#181D1F" stroke="#E6E6E8" stroke-width="0.5"/>
<circle cx="27.5" cy="10.5" r="7.5" fill="#CB3C3C"/>
</svg>
