<svg viewBox="0 0 30 30" fill="none" xmlns="http://www.w3.org/2000/svg">
<path fill-rule="evenodd" clip-rule="evenodd" d="M5.38125 14.5312L9.075 18.225C9.21316 18.3537 9.32398 18.5089 9.40084 18.6814C9.4777 18.8539 9.51903 19.0402 9.52236 19.229C9.52569 19.4178 9.49096 19.6053 9.42023 19.7805C9.3495 19.9556 9.24423 20.1146 9.1107 20.2482C8.97716 20.3817 8.8181 20.487 8.64299 20.5577C8.46789 20.6284 8.28034 20.6631 8.09152 20.6598C7.9027 20.6565 7.71649 20.6152 7.54399 20.5383C7.37149 20.4614 7.21624 20.3506 7.0875 20.2125L0.99375 14.1187L0 13.125L0.99375 12.1312L7.0875 6.03746C7.35408 5.78906 7.70667 5.65383 8.07098 5.66025C8.43529 5.66668 8.78289 5.81427 9.04054 6.07192C9.29819 6.32956 9.44578 6.67716 9.4522 7.04148C9.45863 7.40579 9.3234 7.75838 9.075 8.02496L5.38125 11.7187H23.9062C25.5224 11.7187 27.0724 12.3607 28.2152 13.5035C29.358 14.6463 30 16.1963 30 17.8125C30 19.4286 29.358 20.9786 28.2152 22.1214C27.0724 23.2642 25.5224 23.9062 23.9062 23.9062H20.1562C19.7833 23.9062 19.4256 23.758 19.1619 23.4943C18.8982 23.2306 18.75 22.8729 18.75 22.5C18.75 22.127 18.8982 21.7693 19.1619 21.5056C19.4256 21.2419 19.7833 21.0937 20.1562 21.0937H23.9062C24.7765 21.0937 25.6111 20.748 26.2264 20.1327C26.8418 19.5173 27.1875 18.6827 27.1875 17.8125C27.1875 16.9422 26.8418 16.1076 26.2264 15.4923C25.6111 14.8769 24.7765 14.5312 23.9062 14.5312H5.38125Z" fill="#343EC2"/>
</svg>
