<svg xmlns="http://www.w3.org/2000/svg" viewBox="0 0 31 29" fill="none"><path fill="#181D1F" fill-opacity=".75" d="M29.778 14.54 16.992 1.76l-.857-.857a1.04 1.04 0 0 0-1.47 0L1.024 14.54A2.12 2.12 0 0 0 .4 16.061c.013 1.164.982 2.094 2.147 2.094h1.406v10.778h22.893V18.156h1.436c.565 0 1.098-.221 1.499-.622a2.1 2.1 0 0 0 .618-1.499c0-.562-.221-1.095-.622-1.495M17.254 26.55h-3.707v-6.75h3.706zm7.21-10.777V26.55H19.37v-7.544c0-.732-.592-1.324-1.323-1.324h-5.295c-.731 0-1.323.592-1.323 1.324v7.544H6.337V15.774H3.16L15.404 3.54l.764.765 11.476 11.469z"/></svg>