<svg viewBox="0 0 36 36" fill="none" xmlns="http://www.w3.org/2000/svg">
<path d="M11.9627 17.475C12.9771 17.475 13.9501 17.072 14.6674 16.3546C15.3847 15.6373 15.7877 14.6644 15.7877 13.65C15.7877 12.6355 15.3847 11.6626 14.6674 10.9453C13.9501 10.2279 12.9771 9.82495 11.9627 9.82495C10.9482 9.82495 9.97534 10.2279 9.25801 10.9453C8.54069 11.6626 8.1377 12.6355 8.1377 13.65C8.1377 14.6644 8.54069 15.6373 9.25801 16.3546C9.97534 17.072 10.9482 17.475 11.9627 17.475ZM19.6127 12.6937C19.6127 12.4401 19.7134 12.1969 19.8928 12.0175C20.0721 11.8382 20.3153 11.7375 20.5689 11.7375H28.2189C28.4726 11.7375 28.7158 11.8382 28.8951 12.0175C29.0744 12.1969 29.1752 12.4401 29.1752 12.6937C29.1752 12.9473 29.0744 13.1905 28.8951 13.3699C28.7158 13.5492 28.4726 13.65 28.2189 13.65H20.5689C20.3153 13.65 20.0721 13.5492 19.8928 13.3699C19.7134 13.1905 19.6127 12.9473 19.6127 12.6937ZM19.6127 17.475C19.6127 17.2213 19.7134 16.9781 19.8928 16.7988C20.0721 16.6194 20.3153 16.5187 20.5689 16.5187H28.2189C28.4726 16.5187 28.7158 16.6194 28.8951 16.7988C29.0744 16.9781 29.1752 17.2213 29.1752 17.475C29.1752 17.7286 29.0744 17.9718 28.8951 18.1511C28.7158 18.3305 28.4726 18.4312 28.2189 18.4312H20.5689C20.3153 18.4312 20.0721 18.3305 19.8928 18.1511C19.7134 17.9718 19.6127 17.7286 19.6127 17.475ZM21.5252 22.2562C21.5252 22.0026 21.6259 21.7594 21.8053 21.58C21.9846 21.4007 22.2278 21.3 22.4814 21.3H28.2189C28.4726 21.3 28.7158 21.4007 28.8951 21.58C29.0744 21.7594 29.1752 22.0026 29.1752 22.2562C29.1752 22.5098 29.0744 22.753 28.8951 22.9324C28.7158 23.1117 28.4726 23.2125 28.2189 23.2125H22.4814C22.2278 23.2125 21.9846 23.1117 21.8053 22.9324C21.6259 22.753 21.5252 22.5098 21.5252 22.2562Z" fill="#181D1F" fill-opacity="0.75" stroke="#181D1F" stroke-opacity="0.75" stroke-width="0.5"/>
<path d="M6.22539 6C5.21094 6 4.23803 6.40299 3.52071 7.12032C2.80338 7.83764 2.40039 8.81055 2.40039 9.825L2.40039 25.125C2.40039 26.1395 2.80338 27.1124 3.52071 27.8297C4.23803 28.547 5.21094 28.95 6.22539 28.95H29.1754C30.1898 28.95 31.1627 28.547 31.8801 27.8297C32.5974 27.1124 33.0004 26.1395 33.0004 25.125V9.825C33.0004 8.81055 32.5974 7.83764 31.8801 7.12032C31.1627 6.40299 30.1898 6 29.1754 6H6.22539ZM4.31289 9.825C4.31289 9.31777 4.51439 8.83132 4.87305 8.47266C5.23171 8.114 5.71816 7.9125 6.22539 7.9125H29.1754C29.6826 7.9125 30.1691 8.114 30.5277 8.47266C30.8864 8.83132 31.0879 9.31777 31.0879 9.825V25.125C31.0879 25.6322 30.8864 26.1187 30.5277 26.4773C30.1691 26.836 29.6826 27.0375 29.1754 27.0375H19.5364C19.5874 26.7251 19.6129 26.4064 19.6129 26.0813C19.6129 22.3844 16.1895 19.3875 11.9629 19.3875C7.97342 19.3875 4.69539 22.0612 4.34349 25.4712C4.32281 25.3569 4.31256 25.2411 4.31289 25.125V9.825Z" fill="#181D1F" fill-opacity="0.75" stroke="#181D1F" stroke-opacity="0.75" stroke-width="0.2"/>
</svg>
