<svg xmlns="http://www.w3.org/2000/svg" viewBox="0 0 31 25" fill="none"><path fill="#181D1F" fill-opacity=".75" d="M2.042 0C1.242 0 .6.643.6 1.443v2.885c0 .8.643 1.443 1.442 1.443h2.886c.8 0 1.443-.643 1.443-1.443V1.443C6.37.643 5.728 0 4.928 0zm9.138.962c-1.064 0-1.924.86-1.924 1.924s.86 1.923 1.924 1.923h17.314c1.064 0 1.924-.86 1.924-1.923S29.558.962 28.494.962zm0 9.619c-1.064 0-1.924.86-1.924 1.923s.86 1.924 1.924 1.924h17.314c1.064 0 1.924-.86 1.924-1.924s-.86-1.923-1.924-1.923zm0 9.618c-1.064 0-1.924.86-1.924 1.924s.86 1.924 1.924 1.924h17.314c1.064 0 1.924-.86 1.924-1.924s-.86-1.924-1.924-1.924zM.6 11.062v2.885c0 .8.643 1.443 1.442 1.443h2.886c.8 0 1.443-.643 1.443-1.443v-2.885c0-.8-.643-1.443-1.443-1.443H2.042c-.8 0-1.442.643-1.442 1.443m1.442 8.176c-.8 0-1.442.643-1.442 1.442v2.886c0 .8.643 1.443 1.442 1.443h2.886c.8 0 1.443-.643 1.443-1.443V20.68c0-.8-.643-1.442-1.443-1.442z"/></svg>