<svg xmlns="http://www.w3.org/2000/svg" viewBox="0 0 28 28" fill="none"><path fill="#181D1F" fill-opacity=".75" d="M14 14A6.75 6.75 0 1 0 14 .5 6.75 6.75 0 0 0 14 14m4.5-6.75a4.5 4.5 0 1 1-9 0 4.5 4.5 0 0 1 9 0m9 18c0 2.25-2.25 2.25-2.25 2.25H2.75S.5 27.5.5 25.25s2.25-9 13.5-9 13.5 6.75 13.5 9m-2.25-.009c-.002-.553-.346-2.218-1.872-3.744C21.911 20.03 19.15 18.5 14 18.5s-7.911 1.53-9.378 2.997c-1.525 1.526-1.867 3.19-1.872 3.744z"/><path stroke="#181D1F" stroke-opacity=".75" stroke-width=".2" d="M14 14.1A6.85 6.85 0 1 0 14 .4a6.85 6.85 0 0 0 0 13.7Zm4.4-6.85a4.4 4.4 0 1 1-8.8 0 4.4 4.4 0 0 1 8.8 0Zm6.85 20.25v.1h.028l.076-.005a2.865 2.865 0 0 0 1.066-.287c.293-.146.589-.368.812-.702s.368-.776.368-1.356c0-1.15-.572-3.426-2.56-5.414-1.992-1.991-5.394-3.686-11.04-3.686s-9.048 1.695-11.04 3.686C.973 21.824.4 24.099.4 25.25c0 .58.145 1.022.368 1.356s.52.556.812.702a2.9 2.9 0 0 0 1.141.291h.02l.007.001h.001l.001-.1v.1h22.5zm-1.943-5.932c1.421 1.42 1.8 2.96 1.84 3.573H2.853c.042-.614.418-2.153 1.839-3.573C6.137 20.123 8.87 18.6 14 18.6s7.863 1.523 9.307 2.968Z"/></svg>